<svg version="1" xmlns="http://www.w3.org/2000/svg" width="1093.333" height="1093.333" viewBox="0 0 820.000000 820.000000"><path d="M380 1.2c-73 5.1-146.2 31.4-206.5 74.1C72.4 147 9.5 259.1 1 382.8-13.4 595.4 139.7 785 350.5 815.5c41 5.9 78 5.9 119 0 178.5-25.8 320.2-167.5 346-346 18.4-128-22.6-253.8-112.9-346.3C618.5 37.1 501.1-7.3 380 1.2zm78 221c26.1 49.5 48 90.7 48.6 91.6.8 1.2 19-15.6 97.3-89.8 77.5-73.5 96.5-91 97.6-90 1.1.9 1.1 1.6-.5 4.3-6.1 10.7-143 271.1-143 272.2 0 1 131.8 251.9 142.5 271.2 2 3.6 2.1 4.4.9 5.4-1.1.9-4.5-1.8-17.7-14.3-130.1-123.9-176.2-166.9-177.1-165.5-.6.8-22.5 42-48.6 91.5-26.1 49.6-47.7 90.2-48 90.2-.3 0-21.9-40.6-48-90.2-26.1-49.5-48-90.7-48.6-91.5-.9-1.4-47 41.6-177.1 165.5-13.2 12.5-16.6 15.2-17.7 14.3-1.2-1-1.1-1.8.9-5.4C130.2 662.4 262 411.5 262 410.5c0-1.1-136.9-261.5-143-272.2-1.6-2.7-1.6-3.4-.5-4.3 1.1-1 20.1 16.5 97.6 90 78.3 74.2 96.5 91 97.3 89.8.6-.9 22.5-42.1 48.6-91.6 26.1-49.6 47.7-90.2 48-90.2.3 0 21.9 40.6 48 90.2z"/><path d="M363 229.1c-25.6 48.4-46.6 88.4-46.8 88.8-.3.9 92.6 89.1 93.8 89.1 1.2 0 94.1-88.2 93.8-89.1-1-2.6-93.4-176.9-93.8-176.9-.3 0-21.4 39.6-47 88.1zM136.2 161.8C197.7 278.6 264.6 405 265 405c.8 0 45.3-84.7 45.1-85.7-.2-.9-180-171.3-180.7-171.3-.2 0 2.9 6.2 6.8 13.8zM599.6 233.6l-90.4 85.7 6.6 12.6c30.5 57.8 38.7 73.1 39.2 73.1.3 0 29.1-54.1 64-120.3 34.9-66.1 65.4-123.9 67.8-128.5 2.4-4.5 4.1-8.2 3.8-8.2-.3 0-41.3 38.5-91 85.6zM291 365.7c-12.4 23.5-22.5 43.6-22.5 44.8 0 2.6 44.7 87.6 45.9 87.2.4-.1 21.5-19.8 46.7-43.7l46-43.4-3.3-3.2c-11.9-11.7-89.3-84.4-89.7-84.4-.4 0-10.7 19.2-23.1 42.7zM462.9 363.1c-23.3 22-44.1 41.7-46.2 43.8l-3.8 3.7 46.2 43.7c25.4 24 46.4 43.7 46.8 43.7 1.2 0 45.6-85.2 45.6-87.5 0-2.3-44.4-87.5-45.6-87.5-.3 0-19.7 18-43 40.1zM362.9 458c-25.5 24.1-46.4 44.3-46.4 44.8 0 1.2 92.9 177.2 93.5 177.2.6 0 93.5-176 93.5-177.2 0-1-92.5-88.8-93.5-88.8-.4 0-21.6 19.8-47.1 44zM204 530.7c-33.3 63.1-63.8 120.9-67.8 128.5-4 7.6-7.1 13.8-6.8 13.8.8 0 180.5-170.4 180.7-171.3.2-1-44.4-85.7-45.1-85.7-.3 0-27.8 51.6-61 114.7zM535 452.7c-10.6 20.3-20.8 39.5-22.7 42.9l-3.3 6 90.6 85.8c49.8 47.2 90.7 85.6 90.9 85.4C691 672.3 555.7 416 555 416c-.3 0-9.3 16.5-20 36.7z"/></svg>